# xmcd
#
# Track frame offsets:
#	150
#	16707
#	37032
#	52107
#	69577
#	88752
#	103957
#	116607
#	134590
#	151627
#	175987
#	189497
#	202035
#	219612
#	239885
#
# Disc length: 3373 seconds
#
# Revision: 1
# Processed by: cddbd v1.5.2PL0 Copyright (c) Steve Scherf et al.
# Submitted via: EasyCDDAExtractor 12.0.4.1
#
DISCID=e10d2b0f
DTITLE=Various Artist - A Big Country
DYEAR=1991
DGENRE=Aussie Country
TTITLE0=Graeme Connors - A Little Further North
TTITLE1=James Blundell - Water
TTITLE2=Michael O'Sullivan - Blue Outback Skys
TTITLE3=John Williamson - Cootamundra Wattle
TTITLE4=Colin Buchanan - Time For A Yarn
TTITLE5=Slim Dusty - The Only Way
TTITLE6=Paul Kelly - Sydney From A 727
TTITLE7=Anne Kirkpatrick - Out Of The Blue
TTITLE8=Scrap Metal - Never Fall Again
TTITLE9=Archie Roach - Took The Children Away
TTITLE10=Greg Champion  - You Can Get Arrested For That
TTITLE11=Smoky Dawson - The Days Of Old Khancoban
TTITLE12=Slim Dusty and Anne Kirkpatrick - Two Singers (One Song)
TTITLE13=The Flying Emus - It's A Sunburnt Country
TTITLE14=Tommy Emmanuel - Countrywide
EXTD=
EXTT0=
EXTT1=
EXTT2=
EXTT3=
EXTT4=
EXTT5=
EXTT6=
EXTT7=
EXTT8=
EXTT9=
EXTT10=
EXTT11=
EXTT12=
EXTT13=
EXTT14=
PLAYORDER=
